<mxfile host="www.draw.io" modified="2019-11-05T10:07:45.346Z" agent="Mozilla/5.0 (Macintosh; Intel Mac OS X 10_14_6) AppleWebKit/605.1.15 (KHTML, like Gecko) Version/13.0.2 Safari/605.1.15" etag="_SMfULneBZA7e-7lWTIw" version="12.2.0" type="github" pages="1">
  <diagram name="Page-1" id="dd472eb7-4b8b-5cd9-a60b-b15522922e76">
    <mxGraphModel dx="2272" dy="1545" grid="1" gridSize="10" guides="1" tooltips="1" connect="1" arrows="1" fold="1" page="1" pageScale="1" pageWidth="1100" pageHeight="850" background="#ffffff" math="0" shadow="0">
      <root>
        <mxCell id="0"/>
        <mxCell id="1" parent="0"/>
        <mxCell id="374e34682ed331ee-1" value="基础服务" style="ellipse;whiteSpace=wrap;html=1;rounded=0;shadow=0;dashed=0;comic=0;fontFamily=Verdana;fontSize=22;fillColor=#dae8fc;strokeColor=#6c8ebf;" parent="1" vertex="1">
          <mxGeometry x="330" y="170" width="430" height="410" as="geometry"/>
        </mxCell>
        <mxCell id="45236fa5f4b8e91a-1" value="用户中心&lt;br&gt;&lt;font style=&quot;font-size: 12px&quot;&gt;OA/北森/企服&lt;/font&gt;" style="ellipse;whiteSpace=wrap;html=1;rounded=0;shadow=0;dashed=0;comic=0;fontFamily=Verdana;fontSize=22;fontColor=#0069D1;fillColor=#f5f5f5;strokeColor=#666666;" parent="1" vertex="1">
          <mxGeometry x="300" y="120" width="160" height="160" as="geometry"/>
        </mxCell>
        <mxCell id="45236fa5f4b8e91a-2" value="权限管理&lt;br&gt;&lt;font style=&quot;font-size: 12px&quot;&gt;CRM&lt;/font&gt;" style="ellipse;whiteSpace=wrap;html=1;rounded=0;shadow=0;dashed=0;comic=0;fontFamily=Verdana;fontSize=22;fontColor=#0069D1;fillColor=#f5f5f5;strokeColor=#666666;" parent="1" vertex="1">
          <mxGeometry x="240" y="340" width="160" height="160" as="geometry"/>
        </mxCell>
        <mxCell id="45236fa5f4b8e91a-3" value="实名认证&lt;br&gt;&lt;span style=&quot;font-size: 12px&quot;&gt;前端/企服&lt;/span&gt;" style="ellipse;whiteSpace=wrap;html=1;rounded=0;shadow=0;dashed=0;comic=0;fontFamily=Verdana;fontSize=22;fontColor=#0069D1;fillColor=#f5f5f5;strokeColor=#666666;" parent="1" vertex="1">
          <mxGeometry x="680" y="340" width="160" height="160" as="geometry"/>
        </mxCell>
        <mxCell id="45236fa5f4b8e91a-6" value="SSO&lt;br&gt;&lt;font style=&quot;font-size: 12px&quot;&gt;企服&lt;/font&gt;" style="ellipse;whiteSpace=wrap;html=1;rounded=0;shadow=0;dashed=0;comic=0;fontFamily=Verdana;fontSize=22;fontColor=#0069D1;fillColor=#f5f5f5;strokeColor=#666666;" parent="1" vertex="1">
          <mxGeometry x="610" y="120" width="160" height="160" as="geometry"/>
        </mxCell>
        <mxCell id="45236fa5f4b8e91a-7" value="资质审核&lt;br&gt;&lt;span style=&quot;font-size: 12px&quot;&gt;三方服务&lt;/span&gt;" style="ellipse;whiteSpace=wrap;html=1;rounded=0;shadow=0;dashed=0;comic=0;fontFamily=Verdana;fontSize=22;fontColor=#0069D1;fillColor=#f5f5f5;strokeColor=#666666;" parent="1" vertex="1">
          <mxGeometry x="460" y="500" width="160" height="160" as="geometry"/>
        </mxCell>
        <mxCell id="YmSXFMbT3fj_6tVcl6kP-1" value="选配服务" style="ellipse;whiteSpace=wrap;html=1;rounded=0;shadow=0;dashed=0;comic=0;fontFamily=Verdana;fontSize=22;fontColor=#0069D1;fillColor=#f5f5f5;strokeColor=#666666;" vertex="1" parent="1">
          <mxGeometry x="1050" y="155" width="430" height="410" as="geometry"/>
        </mxCell>
        <mxCell id="YmSXFMbT3fj_6tVcl6kP-2" value="智能办公&lt;br&gt;门锁、打印、会议&lt;br&gt;&lt;span style=&quot;font-size: 12px&quot;&gt;前端/Ops/钥匙管理&lt;/span&gt;" style="ellipse;whiteSpace=wrap;html=1;rounded=0;shadow=0;dashed=0;comic=0;fontFamily=Verdana;fontSize=22;fontColor=#0069D1;fillColor=#f5f5f5;strokeColor=#666666;" vertex="1" parent="1">
          <mxGeometry x="1010" y="120" width="160" height="160" as="geometry"/>
        </mxCell>
        <mxCell id="YmSXFMbT3fj_6tVcl6kP-3" value="营销管理&lt;br&gt;线索、机会、渠道&lt;br&gt;&lt;font style=&quot;font-size: 12px&quot;&gt;CRM&lt;/font&gt;" style="ellipse;whiteSpace=wrap;html=1;rounded=0;shadow=0;dashed=0;comic=0;fontFamily=Verdana;fontSize=22;fontColor=#0069D1;fillColor=#f5f5f5;strokeColor=#666666;" vertex="1" parent="1">
          <mxGeometry x="970" y="310" width="160" height="160" as="geometry"/>
        </mxCell>
        <mxCell id="YmSXFMbT3fj_6tVcl6kP-4" value="资产管理&lt;br&gt;房源、产品&lt;br&gt;&lt;span style=&quot;font-size: 12px&quot;&gt;CRM&lt;/span&gt;" style="ellipse;whiteSpace=wrap;html=1;rounded=0;shadow=0;dashed=0;comic=0;fontFamily=Verdana;fontSize=22;fontColor=#0069D1;fillColor=#f5f5f5;strokeColor=#666666;" vertex="1" parent="1">
          <mxGeometry x="1380" y="120" width="160" height="160" as="geometry"/>
        </mxCell>
        <mxCell id="YmSXFMbT3fj_6tVcl6kP-5" value="品牌管理&lt;br&gt;官网、APP、小程序&lt;br&gt;&lt;font style=&quot;font-size: 12px&quot;&gt;前端/CMS/CRM&lt;/font&gt;" style="ellipse;whiteSpace=wrap;html=1;rounded=0;shadow=0;dashed=0;comic=0;fontFamily=Verdana;fontSize=22;fontColor=#0069D1;fillColor=#f5f5f5;strokeColor=#666666;" vertex="1" parent="1">
          <mxGeometry x="1200" y="75" width="160" height="160" as="geometry"/>
        </mxCell>
        <mxCell id="YmSXFMbT3fj_6tVcl6kP-6" value="电子签约&lt;br&gt;合同管理、流程管理&lt;br&gt;&lt;span style=&quot;font-size: 12px&quot;&gt;纳米/CRM&lt;/span&gt;" style="ellipse;whiteSpace=wrap;html=1;rounded=0;shadow=0;dashed=0;comic=0;fontFamily=Verdana;fontSize=22;fontColor=#0069D1;fillColor=#f5f5f5;strokeColor=#666666;" vertex="1" parent="1">
          <mxGeometry x="1300" y="450" width="160" height="160" as="geometry"/>
        </mxCell>
        <mxCell id="YmSXFMbT3fj_6tVcl6kP-14" value="客户管理&lt;br&gt;业主、租户&lt;br&gt;&lt;span style=&quot;font-size: 12px&quot;&gt;CRM&lt;/span&gt;" style="ellipse;whiteSpace=wrap;html=1;rounded=0;shadow=0;dashed=0;comic=0;fontFamily=Verdana;fontSize=22;fontColor=#0069D1;fillColor=#f5f5f5;strokeColor=#666666;" vertex="1" parent="1">
          <mxGeometry x="1420" y="295" width="160" height="160" as="geometry"/>
        </mxCell>
        <mxCell id="YmSXFMbT3fj_6tVcl6kP-15" value="财务管理&lt;br&gt;报表管理、数据分析&lt;br&gt;&lt;span style=&quot;font-size: 12px&quot;&gt;纳米&lt;/span&gt;" style="ellipse;whiteSpace=wrap;html=1;rounded=0;shadow=0;dashed=0;comic=0;fontFamily=Verdana;fontSize=22;fontColor=#0069D1;fillColor=#f5f5f5;strokeColor=#666666;" vertex="1" parent="1">
          <mxGeometry x="1100" y="450" width="160" height="160" as="geometry"/>
        </mxCell>
        <mxCell id="YmSXFMbT3fj_6tVcl6kP-16" value="&amp;nbsp; &amp;nbsp;" style="text;html=1;resizable=0;points=[];autosize=1;align=left;verticalAlign=top;spacingTop=-4;" vertex="1" parent="1">
          <mxGeometry x="-55" y="395" width="30" height="20" as="geometry"/>
        </mxCell>
        <mxCell id="YmSXFMbT3fj_6tVcl6kP-17" value="&amp;nbsp; &amp;nbsp;" style="text;html=1;resizable=0;points=[];autosize=1;align=left;verticalAlign=top;spacingTop=-4;" vertex="1" parent="1">
          <mxGeometry x="386" y="-252" width="30" height="20" as="geometry"/>
        </mxCell>
        <mxCell id="YmSXFMbT3fj_6tVcl6kP-18" value="&amp;nbsp;&amp;nbsp;" style="text;html=1;resizable=0;points=[];autosize=1;align=left;verticalAlign=top;spacingTop=-4;" vertex="1" parent="1">
          <mxGeometry x="430" y="1182" width="20" height="20" as="geometry"/>
        </mxCell>
        <mxCell id="YmSXFMbT3fj_6tVcl6kP-19" value="&amp;nbsp; &amp;nbsp;&amp;nbsp;" style="text;html=1;resizable=0;points=[];autosize=1;align=left;verticalAlign=top;spacingTop=-4;" vertex="1" parent="1">
          <mxGeometry x="2290" y="382" width="30" height="20" as="geometry"/>
        </mxCell>
      </root>
    </mxGraphModel>
  </diagram>
</mxfile>
